<svg xmlns="http://www.w3.org/2000/svg" width="400" height="220" viewBox="0 0 400 220">
  <rect width="400" height="220" fill="#EDE8E2"/>
  <!-- Sky gradient -->
  <rect width="400" height="140" fill="#D4CFC8"/>
  <!-- Sakurajima silhouette -->
  <path d="M0 220 L0 160 Q60 155 80 140 Q100 125 120 130 Q150 120 160 105 Q170 90 180 100 Q195 85 210 95 Q230 110 250 115 Q270 118 290 130 Q320 140 360 138 Q380 140 400 138 L400 220 Z" fill="#C8C3BC"/>
  <!-- Ground -->
  <rect y="185" width="400" height="35" fill="#B8B2AB"/>
  <!-- Bus stop pole -->
  <rect x="195" y="120" width="4" height="80" fill="#8A8278"/>
  <!-- Bus stop sign -->
  <rect x="180" y="115" width="36" height="22" rx="2" fill="#1E3A4F"/>
  <text x="198" y="130" text-anchor="middle" font-family="sans-serif" font-size="9" fill="white">バス停</text>
  <!-- Photo label -->
  <text x="200" y="175" text-anchor="middle" font-family="sans-serif" font-size="11" fill="#8A8278" letter-spacing="1">Photo coming soon</text>
</svg>
